<svg width="32" height="32" viewBox="0 0 32 32" fill="none" xmlns="http://www.w3.org/2000/svg">
  <defs>
    <linearGradient id="gradient" x1="0%" y1="0%" x2="100%" y2="100%">
      <stop offset="0%" style="stop-color:#8B5CF6;stop-opacity:1" />
      <stop offset="100%" style="stop-color:#EC4899;stop-opacity:1" />
    </linearGradient>
  </defs>
  <!-- Tulip/flower icon -->
  <path d="M16 4C14 4 12 6 12 9C12 11 13 13 14 14C13 14 11 15 10 17C9 19 9 21 10 23C11 24 12 25 14 25.5C14 25.5 14 26 14 26.5C14 27.5 14 29 16 29C18 29 18 27.5 18 26.5C18 26 18 25.5 18 25.5C20 25 21 24 22 23C23 21 23 19 22 17C21 15 19 14 18 14C19 13 20 11 20 9C20 6 18 4 16 4Z" fill="url(#gradient)"/>
  <path d="M16 14C17 14 18 13 18 11.5C18 10 17 9 16 9C15 9 14 10 14 11.5C14 13 15 14 16 14Z" fill="white" opacity="0.3"/>
</svg>
