<svg width="200" height="120" viewBox="0 0 200 120" fill="none" xmlns="http://www.w3.org/2000/svg">
  <defs>
    <!-- Gradient for left shape (blue/teal) -->
    <linearGradient id="leftGrad" x1="0%" y1="0%" x2="0%" y2="100%">
      <stop offset="0%" style="stop-color:#37566B;stop-opacity:1" />
      <stop offset="100%" style="stop-color:#5BA6A6;stop-opacity:1" />
    </linearGradient>
    <!-- Gradient for middle shape (green) -->
    <linearGradient id="middleGrad" x1="0%" y1="0%" x2="0%" y2="100%">
      <stop offset="0%" style="stop-color:#5D8B5C;stop-opacity:1" />
      <stop offset="100%" style="stop-color:#99C99A;stop-opacity:1" />
    </linearGradient>
    <!-- Gradient for right shape (gold) -->
    <linearGradient id="rightGrad" x1="0%" y1="0%" x2="0%" y2="100%">
      <stop offset="0%" style="stop-color:#B89850;stop-opacity:1" />
      <stop offset="100%" style="stop-color:#D4C078;stop-opacity:1" />
    </linearGradient>
  </defs>

  <!-- Left rounded rectangle -->
  <rect x="5" y="5" width="55" height="110" rx="25" fill="url(#leftGrad)"/>
  <rect x="12" y="22" width="28" height="15" rx="4" fill="white" opacity="0.85"/>
  <rect x="12" y="85" width="32" height="22" rx="6" fill="white" opacity="0.35"/>

  <!-- Middle rounded rectangle -->
  <rect x="72" y="5" width="55" height="110" rx="25" fill="url(#middleGrad)"/>
  <rect x="79" y="22" width="28" height="15" rx="4" fill="white" opacity="0.85"/>
  <rect x="79" y="85" width="32" height="22" rx="6" fill="white" opacity="0.35"/>

  <!-- Right rounded rectangle -->
  <rect x="139" y="5" width="55" height="110" rx="25" fill="url(#rightGrad)"/>
  <rect x="146" y="22" width="28" height="15" rx="4" fill="white" opacity="0.85"/>
  <rect x="146" y="85" width="32" height="22" rx="6" fill="white" opacity="0.35"/>

  <!-- Connection curve from left to middle -->
  <path d="M 40 65 Q 56 85, 72 65" stroke="white" stroke-width="2.5" fill="none" opacity="0.65"/>

  <!-- Connection line and curve from middle to right -->
  <line x1="127" y1="28" x2="139" y2="22" stroke="white" stroke-width="2" opacity="0.65"/>

  <!-- Arrow on right side -->
  <path d="M 188 17 L 197 12 L 193 22 Z" fill="#D4C078"/>
</svg>
